<svg width="20" height="20" viewBox="0 0 20 20" fill="none" xmlns="http://www.w3.org/2000/svg">
<g clip-path="url(#clip0_1_608)">
<path d="M11.6667 2.72416C11.6667 2.13999 11.1934 1.66666 10.6092 1.66666H9.39175C8.80675 1.66666 8.33341 2.13999 8.33341 2.72416C8.33341 3.20582 8.00341 3.61916 7.55425 3.79582C7.48341 3.82416 7.41258 3.85416 7.34341 3.88416C6.90091 4.07582 6.37508 4.01749 6.03341 3.67666C5.83512 3.4785 5.56625 3.36719 5.28591 3.36719C5.00558 3.36719 4.73671 3.4785 4.53841 3.67666L3.67675 4.53832C3.47859 4.73662 3.36728 5.00549 3.36728 5.28582C3.36728 5.56616 3.47859 5.83502 3.67675 6.03332V6.03332C4.01841 6.37499 4.07675 6.89999 3.88341 7.34332C3.85304 7.41309 3.82387 7.48338 3.79591 7.55416C3.61925 8.00332 3.20591 8.33332 2.72425 8.33332C2.14008 8.33332 1.66675 8.80666 1.66675 9.39082V10.6092C1.66675 11.1933 2.14008 11.6667 2.72425 11.6667C3.20591 11.6667 3.61925 11.9967 3.79591 12.4458C3.82425 12.5167 3.85425 12.5875 3.88341 12.6567C4.07591 13.0992 4.01758 13.625 3.67675 13.9667C3.47859 14.165 3.36728 14.4338 3.36728 14.7142C3.36728 14.9945 3.47859 15.2634 3.67675 15.4617L4.53841 16.3233C4.73671 16.5215 5.00558 16.6328 5.28591 16.6328C5.56625 16.6328 5.83512 16.5215 6.03341 16.3233C6.37508 15.9817 6.90008 15.9233 7.34341 16.1158C7.41258 16.1467 7.48341 16.1758 7.55425 16.2042C8.00341 16.3808 8.33341 16.7942 8.33341 17.2758C8.33341 17.86 8.80675 18.3333 9.39091 18.3333H10.6092C11.1934 18.3333 11.6667 17.86 11.6667 17.2758C11.6667 16.7942 11.9967 16.3808 12.4459 16.2033C12.5167 16.1758 12.5876 16.1467 12.6567 16.1167C13.0992 15.9233 13.6251 15.9825 13.9659 16.3233C14.0641 16.4216 14.1807 16.4995 14.309 16.5527C14.4374 16.6058 14.5749 16.6332 14.7138 16.6332C14.8527 16.6332 14.9903 16.6058 15.1186 16.5527C15.2469 16.4995 15.3635 16.4216 15.4617 16.3233L16.3234 15.4617C16.5216 15.2634 16.6329 14.9945 16.6329 14.7142C16.6329 14.4338 16.5216 14.165 16.3234 13.9667V13.9667C15.9817 13.625 15.9234 13.1 16.1159 12.6567C16.1467 12.5875 16.1759 12.5167 16.2042 12.4458C16.3809 11.9967 16.7942 11.6667 17.2759 11.6667C17.8601 11.6667 18.3334 11.1933 18.3334 10.6092V9.39166C18.3334 8.80749 17.8601 8.33416 17.2759 8.33416C16.7942 8.33416 16.3809 8.00416 16.2034 7.55499C16.1755 7.4842 16.1463 7.41391 16.1159 7.34416C15.9242 6.90166 15.9826 6.37582 16.3234 6.03416C16.5216 5.83586 16.6329 5.56699 16.6329 5.28666C16.6329 5.00632 16.5216 4.73745 16.3234 4.53916L15.4617 3.67749C15.2635 3.47933 14.9946 3.36802 14.7142 3.36802C14.4339 3.36802 14.165 3.47933 13.9667 3.67749V3.67749C13.6251 4.01916 13.1001 4.07749 12.6567 3.88499C12.587 3.85433 12.5167 3.82488 12.4459 3.79666C11.9967 3.61916 11.6667 3.20582 11.6667 2.72499V2.72416Z"  stroke-width="1.5" stroke-linecap="round" stroke-linejoin="round"/>
<path d="M13.3334 9.99999C13.3334 10.884 12.9822 11.7319 12.3571 12.357C11.732 12.9821 10.8841 13.3333 10.0001 13.3333C9.11603 13.3333 8.26818 12.9821 7.64306 12.357C7.01794 11.7319 6.66675 10.884 6.66675 9.99999C6.66675 9.11593 7.01794 8.26809 7.64306 7.64297C8.26818 7.01785 9.11603 6.66666 10.0001 6.66666C10.8841 6.66666 11.732 7.01785 12.3571 7.64297C12.9822 8.26809 13.3334 9.11593 13.3334 9.99999V9.99999Z"  stroke-width="1.5" stroke-linecap="round" stroke-linejoin="round"/>
</g>
<defs>
<clipPath id="clip0_1_608">
<rect width="20" height="20" fill="white"/>
</clipPath>
</defs>
</svg>
