<?xml version="1.0" standalone="no"?>
<!DOCTYPE svg PUBLIC "-//W3C//DTD SVG 20010904//EN"
 "http://www.w3.org/TR/2001/REC-SVG-20010904/DTD/svg10.dtd">
<svg version="1.0" xmlns="http://www.w3.org/2000/svg"
 width="260.000000pt" height="260.000000pt" viewBox="0 0 260.000000 260.000000"
 preserveAspectRatio="xMidYMid meet">
<metadata>
Created by potrace 1.14, written by Peter Selinger 2001-2017
</metadata>
<g transform="translate(0.000000,260.000000) scale(0.100000,-0.100000)"
fill="#000000" stroke="none">
<path d="M0 1290 l0 -540 950 0 950 0 0 540 0 540 -950 0 -950 0 0 -540z m450
235 l0 -35 -90 0 -90 0 0 -230 0 -230 -40 0 -40 0 0 230 0 230 -90 0 -90 0 0
35 0 35 220 0 220 0 0 -35z m337 15 c109 -49 112 -195 6 -257 -44 -25 -45 -27
-26 -42 11 -9 50 -60 87 -113 l67 -98 -45 0 -45 0 -77 110 c-43 62 -84 110
-93 110 -9 0 -26 3 -38 6 -23 6 -23 6 -23 -110 l0 -116 -40 0 -40 0 0 259 0
260 23 4 c12 2 63 5 112 5 69 1 100 -3 132 -18z m378 -117 c50 -75 95 -148
101 -162 l11 -26 12 25 c8 14 51 87 98 163 82 133 86 137 119 137 l34 0 0
-265 0 -265 -40 0 -40 0 0 203 c-1 191 -2 200 -17 172 -44 -84 -157 -255 -168
-255 -12 0 -168 227 -182 267 -4 12 -6 -70 -5 -183 l4 -204 -36 0 -36 0 0 265
0 265 28 0 c24 0 38 -17 117 -137z"/>
<path d="M608 1484 c-5 -4 -8 -45 -8 -92 l0 -85 63 5 c70 6 100 20 116 55 17
36 13 59 -12 88 -19 23 -33 28 -87 32 -36 3 -68 2 -72 -3z"/>
</g>
</svg>
